<?xml version="1.0" encoding="utf-8"?>
<!-- Generator: Adobe Illustrator 17.1.0, SVG Export Plug-In . SVG Version: 6.00 Build 0)  -->
<!DOCTYPE svg PUBLIC "-//W3C//DTD SVG 1.1//EN" "http://www.w3.org/Graphics/SVG/1.1/DTD/svg11.dtd">
<svg version="1.1" id="Layer_1" xmlns="http://www.w3.org/2000/svg" xmlns:xlink="http://www.w3.org/1999/xlink" x="0px" y="0px"
	 viewBox="0 0 400 150" enable-background="new 0 0 400 150" xml:space="preserve">
<g>
	<path fill="#14234C" d="M120.5,67c7.9,0,13,4.1,15.4,11h11.8c-2.9-13.1-13.3-21.3-27.2-21.3c-16.6,0-29.1,12.9-29.1,29.8
		c0,16.9,12.5,29.4,29.1,29.4c13.9,0,24-8.6,27.2-21.3h-11.8c-2.4,6.5-7.6,11-15.4,11c-10.9,0-17.7-7.8-17.7-19
		C102.9,75.3,109.6,67,120.5,67z"/>
	<path fill="#14234C" d="M169.2,63.1l-0.5,0l-0.6-5.6h-9.9v58.6h11V79c0-7.8,6-12.1,13.9-12.1c1.7,0,2.1,0.1,2.1,0.1V56.3
		c0,0-0.7-0.2-2.1-0.2C179.7,56.1,173.5,57.5,169.2,63.1z"/>
	<path fill="#14234C" d="M287.3,56.1c-9.8,0-15.8,4.2-18.4,7l-0.5,0l-0.6-5.6h-9.9v58.6h11V79.2c0-8.2,7.4-12.5,16.5-12.5
		c7.8,0,13.4,3.9,13.4,12v37.4h11V78C309.7,61.8,298.3,56.1,287.3,56.1z"/>
	<rect x="323.9" y="57.5" fill="#14234C" width="11" height="58.6"/>
	<path fill="#14234C" d="M217.6,56.7c-16.7,0-29.4,12.7-29.4,29.6c0,16.9,12.6,29.6,29.4,29.6c16.7,0,29.4-12.7,29.4-29.6
		C247,69.4,234.3,56.7,217.6,56.7z M217.6,105.3c-10.9,0-17.9-8-17.9-19c0-11,7-19.2,17.9-19.2c10.9,0,17.9,8.2,17.9,19.2
		C235.5,97.3,228.5,105.3,217.6,105.3z"/>
	<path fill="#14234C" d="M370.4,80.5c-10.9-2.4-10.4-5.1-10.4-7.5c0-2.9,3.2-6.5,8.5-6.5c4.4,0,9.1,2.2,9.1,9.6h10.6
		c0.4-12-7.5-19.3-19.7-19.3c-10.8,0-19.5,7.5-19.5,16.7c0,11.6,9.2,15.2,19.2,17.4c10.6,2.3,11.5,5.6,11.5,7.9
		c0,4.4-4.5,8.2-10.8,8.2c-4.5,0-11.4-2.8-11.4-11.3h-10.6c-0.7,13.4,9,21.1,22,21.1c12.3,0,22-7.9,22-18.4
		C390.8,86.4,380.3,82.6,370.4,80.5z"/>
	<path fill="#14234C" d="M44.8,35.1L8.3,116.1H20l7.1-16.3h45.4l7.1,16.3h11.6L54.9,35.1H44.8z M49.6,48.9h0.5l0.6,1.5L61,74H38.7
		L49,50.4L49.6,48.9z M31.2,90.6l3.4-7.6H65l3.4,7.6H31.2z"/>
</g>
</svg>
