<svg xmlns="http://www.w3.org/2000/svg" viewBox="0 0 204 32" class="logo__svg">
    <g fill="#007BFF" fill-rule="evenodd">
        <path d="M22.838 22.838H7.29a4.112 4.112 0 0 1-2.909-1.205l-3.176-3.176A4.113 4.113 0 0 1 0 15.548V7.29c0-1.091.433-2.137 1.205-2.908L4.38 1.205A4.112 4.112 0 0 1 7.29 0h15.548v4.568H8.68A4.113 4.113 0 0 0 4.568 8.68v5.477A4.113 4.113 0 0 0 8.68 18.27h14.158v4.568z"/>
        <path d="M9.135 9.135h15.549c1.09 0 2.136.433 2.908 1.205l3.176 3.177a4.113 4.113 0 0 1 1.205 2.908v8.259c0 1.09-.433 2.136-1.205 2.908l-3.176 3.177a4.112 4.112 0 0 1-2.908 1.204H9.135v-4.567h14.158a4.113 4.113 0 0 0 4.113-4.113v-5.477a4.113 4.113 0 0 0-4.113-4.113H9.135V9.135zM51.78 24.492c-3.69 0-6.52-3.116-6.52-8.713 0-5.566 2.894-8.555 6.551-8.555 2.99 0 5.248 1.654 5.947 4.77h3.88c-.922-5.152-4.58-8.077-9.7-8.077-6.678 0-10.844 4.611-10.844 11.862 0 7.219 3.912 12.021 10.654 12.021 5.31 0 9-2.926 9.954-8.078h-3.88c-.7 3.149-2.926 4.77-6.042 4.77M72.737 9.895c-2.385 0-4.198.986-5.184 2.767V4.33h-3.785v23.056h3.785v-9.095c0-3.085 1.081-5.31 3.975-5.31s3.244 2.257 3.244 4.579v9.826h3.784V16.637c0-4.07-1.685-6.742-5.82-6.742M88.821 24.715c-2.766 0-4.325-2.258-4.325-5.883 0-3.626 1.559-5.852 4.325-5.852 2.48 0 4.42 1.908 4.42 5.852 0 3.943-1.94 5.883-4.42 5.883zm4.262-12.148c-1.018-1.686-2.799-2.672-5.089-2.672-4.293 0-7.441 3.435-7.441 8.937 0 5.501 3.148 8.968 7.441 8.968 2.29 0 4.071-.986 5.089-2.672v2.258h3.784v-17.11h-3.784v2.29zM100.04 27.386h3.785V10.277h-3.785zM115.76 9.895c-2.386 0-4.198.986-5.184 2.767v-2.385h-3.785v17.11h3.785V18.29c0-3.085 1.081-5.31 3.975-5.31s3.244 2.257 3.244 4.579v9.826h3.784V16.637c0-4.07-1.685-6.742-5.82-6.742M132.232 17.178l-2.417-.477c-1.463-.286-2.29-.89-2.29-2.035s1.527-1.877 3.18-1.877c1.909 0 3.34.605 3.753 2.163h3.562c-.7-3.435-3.752-5.057-7.092-5.057-3.72 0-6.964 1.94-6.964 4.962 0 3.116 2.258 4.42 5.151 4.992l2.577.51c1.685.317 2.957.953 2.957 2.353 0 1.399-1.463 2.226-3.434 2.226-2.227 0-3.499-1.018-3.849-2.767h-3.688c.413 3.244 3.212 5.629 7.41 5.629 3.88 0 7.25-1.972 7.25-5.534 0-3.339-2.64-4.42-6.106-5.088M145.652 5.761h-3.785v4.516h-2.544v2.735h2.544v9.89c0 3.499.732 4.485 4.389 4.485h2.799v-2.895h-1.368c-1.622 0-2.035-.413-2.035-2.162v-9.318h3.434v-2.735h-3.434V5.761zM159.072 24.715c-2.767 0-4.325-2.258-4.325-5.883 0-3.626 1.558-5.852 4.325-5.852 2.48 0 4.42 1.908 4.42 5.852 0 3.943-1.94 5.883-4.42 5.883zm4.261-12.148c-1.017-1.686-2.798-2.672-5.088-2.672-4.293 0-7.442 3.435-7.442 8.937 0 5.501 3.149 8.968 7.442 8.968 2.29 0 4.07-.986 5.088-2.672v2.258h3.785v-17.11h-3.785v2.29zM177.739 24.651c-2.227 0-4.389-1.749-4.389-5.82 0-4.038 2.13-5.787 4.484-5.787 2.067 0 3.657 1.272 3.975 3.084h3.69c-.637-3.816-3.944-6.233-7.665-6.233-5.088 0-8.396 3.88-8.396 8.969 0 5.088 3.276 8.936 8.237 8.936 3.657 0 7.187-2.258 7.95-6.265h-3.688c-.478 2.29-2.354 3.116-4.198 3.116M202.448 10.277H197.9l-6.328 6.87V4.33h-3.785v23.056h3.785v-5.47l1.812-1.94 5.375 7.41h4.42l-7.282-10.08zM102.007 3.575a2.485 2.485 0 1 0 0 4.969 2.485 2.485 0 0 0 0-4.97"/>
    </g>
</svg>