<svg width="176.33625488281248px" height="78.798681640625px" xmlns="http://www.w3.org/2000/svg" viewBox="0 0 500 150" style="background: rgba(0, 0, 0, 0);"><defs><filter id="editing-hole" x="-100%" y="-100%" width="300%" height="300%"><feFlood flood-color="#000" result="black"></feFlood><feMorphology operator="dilate" radius="2" in="SourceGraphic" result="erode"></feMorphology><feGaussianBlur in="erode" stdDeviation="4" result="blur"></feGaussianBlur><feOffset in="blur" dx="2" dy="2" result="offset"></feOffset><feComposite operator="atop" in="offset" in2="black" result="merge"></feComposite><feComposite operator="in" in="merge" in2="SourceGraphic" result="inner-shadow"></feComposite></filter></defs><g filter="url(#editing-hole)"><g transform="translate(192.047189950943, 92.67593765258789)"><path d="M2.51-23.61L2.51-26.65L12.43-26.65L12.43-26.65Q14.26-26.65 15.91-26.17L15.91-26.17L15.91-26.17Q17.56-25.70 18.98-24.84L18.98-24.84L18.98-24.84Q20.41-23.98 21.57-22.77L21.57-22.77L21.57-22.77Q22.73-21.57 23.55-20.09L23.55-20.09L23.55-20.09Q24.36-18.62 24.80-16.92L24.80-16.92L24.80-16.92Q25.24-15.22 25.24-13.39L25.24-13.39L25.24-13.39Q25.24-11.53 24.80-9.83L24.80-9.83L24.80-9.83Q24.36-8.12 23.55-6.63L23.55-6.63L23.55-6.63Q22.73-5.13 21.57-3.91L21.57-3.91L21.57-3.91Q20.41-2.69 18.98-1.82L18.98-1.82L18.98-1.82Q17.56-0.95 15.91-0.47L15.91-0.47L15.91-0.47Q14.26 0 12.43 0L12.43 0L2.51 0L2.51-3.02L5.04-3.02L5.04-23.61L2.51-23.61ZM12.64-23.61L8.49-23.61L8.49-3.02L12.64-3.02L12.64-3.02Q14.48-3.02 16.11-3.83L16.11-3.83L16.11-3.83Q17.74-4.64 18.95-6.04L18.95-6.04L18.95-6.04Q20.16-7.44 20.87-9.33L20.87-9.33L20.87-9.33Q21.57-11.21 21.57-13.39L21.57-13.39L21.57-13.39Q21.57-15.54 20.87-17.40L20.87-17.40L20.87-17.40Q20.16-19.27 18.95-20.65L18.95-20.65L18.95-20.65Q17.74-22.03 16.11-22.82L16.11-22.82L16.11-22.82Q14.48-23.61 12.64-23.61L12.64-23.61ZM44.77 0L44.77-3.02L46.99-3.02L44.88-9.07L34.63-9.07L32.57-3.02L35.31-3.02L35.31 0L26.67 0L26.67-3.02L28.99-3.02L37.28-26.65L42.47-26.65L50.75-3.02L53.42-3.02L53.42 0L44.77 0ZM39.71-23.91L35.63-11.99L43.86-11.99L39.71-23.91ZM54.63-15.19L54.63-18.21L60.43-18.21L60.43-16.70L60.43-16.70Q61.59-17.60 62.96-18.12L62.96-18.12L62.96-18.12Q64.34-18.65 65.79-18.65L65.79-18.65L65.79-18.65Q67.59-18.65 69.08-17.98L69.08-17.98L69.08-17.98Q70.58-17.31 71.66-16.10L71.66-16.10L71.66-16.10Q72.74-14.89 73.34-13.19L73.34-13.19L73.34-13.19Q73.93-11.50 73.93-9.44L73.93-9.44L73.93-9.44Q73.93-7.24 73.27-5.43L73.27-5.43L73.27-5.43Q72.60-3.62 71.41-2.33L71.41-2.33L71.41-2.33Q70.22-1.04 68.59-0.32L68.59-0.32L68.59-0.32Q66.96 0.40 65.00 0.40L65.00 0.40L65.00 0.40Q63.62 0.40 62.53 0.11L62.53 0.11L62.53 0.11Q61.45-0.18 60.47-0.63L60.47-0.63L60.47 5.26L63.32 5.26L63.32 8.28L54.67 8.28L54.67 5.26L57.16 5.26L57.16-15.19L54.63-15.19ZM64.93-15.77L64.93-15.77L64.93-15.77Q63.67-15.77 62.50-15.26L62.50-15.26L62.50-15.26Q61.33-14.75 60.47-13.85L60.47-13.85L60.47-3.99L60.47-3.99Q61.05-3.39 62.13-2.92L62.13-2.92L62.13-2.92Q63.21-2.44 64.83-2.44L64.83-2.44L64.83-2.44Q65.95-2.44 66.99-2.88L66.99-2.88L66.99-2.88Q68.03-3.32 68.82-4.19L68.82-4.19L68.82-4.19Q69.61-5.06 70.08-6.35L70.08-6.35L70.08-6.35Q70.56-7.63 70.56-9.32L70.56-9.32L70.56-9.32Q70.56-10.86 70.11-12.06L70.11-12.06L70.11-12.06Q69.66-13.25 68.90-14.08L68.90-14.08L68.90-14.08Q68.13-14.91 67.11-15.34L67.11-15.34L67.11-15.34Q66.09-15.77 64.93-15.77ZM76.59-15.19L76.59-18.21L82.39-18.21L82.39-16.70L82.39-16.70Q83.55-17.60 84.92-18.12L84.92-18.12L84.92-18.12Q86.29-18.65 87.75-18.65L87.75-18.65L87.75-18.65Q89.54-18.65 91.04-17.98L91.04-17.98L91.04-17.98Q92.53-17.31 93.61-16.10L93.61-16.10L93.61-16.10Q94.69-14.89 95.29-13.19L95.29-13.19L95.29-13.19Q95.89-11.50 95.89-9.44L95.89-9.44L95.89-9.44Q95.89-7.24 95.22-5.43L95.22-5.43L95.22-5.43Q94.55-3.62 93.37-2.33L93.37-2.33L93.37-2.33Q92.18-1.04 90.54-0.32L90.54-0.32L90.54-0.32Q88.91 0.40 86.96 0.40L86.96 0.40L86.96 0.40Q85.57 0.40 84.49 0.11L84.49 0.11L84.49 0.11Q83.41-0.18 82.42-0.63L82.42-0.63L82.42 5.26L85.27 5.26L85.27 8.28L76.62 8.28L76.62 5.26L79.12 5.26L79.12-15.19L76.59-15.19ZM86.89-15.77L86.89-15.77L86.89-15.77Q85.62-15.77 84.45-15.26L84.45-15.26L84.45-15.26Q83.29-14.75 82.42-13.85L82.42-13.85L82.42-3.99L82.42-3.99Q83.00-3.39 84.08-2.92L84.08-2.92L84.08-2.92Q85.17-2.44 86.78-2.44L86.78-2.44L86.78-2.44Q87.91-2.44 88.95-2.88L88.95-2.88L88.95-2.88Q89.98-3.32 90.77-4.19L90.77-4.19L90.77-4.19Q91.56-5.06 92.04-6.35L92.04-6.35L92.04-6.35Q92.51-7.63 92.51-9.32L92.51-9.32L92.51-9.32Q92.51-10.86 92.07-12.06L92.07-12.06L92.07-12.06Q91.62-13.25 90.85-14.08L90.85-14.08L90.85-14.08Q90.09-14.91 89.07-15.34L89.07-15.34L89.07-15.34Q88.05-15.77 86.89-15.77ZM109.78-13.32L109.78-13.32Q109.78-14.06 109.43-14.58L109.43-14.58L109.43-14.58Q109.09-15.10 108.54-15.42L108.54-15.42L108.54-15.42Q108-15.75 107.33-15.90L107.33-15.90L107.33-15.90Q106.66-16.05 106.03-16.05L106.03-16.05L106.03-16.05Q105.33-16.05 104.74-15.89L104.74-15.89L104.74-15.89Q104.15-15.73 103.73-15.43L103.73-15.43L103.73-15.43Q103.31-15.13 103.07-14.70L103.07-14.70L103.07-14.70Q102.83-14.27 102.83-13.75L102.83-13.75L102.83-13.75Q102.83-12.83 103.39-12.30L103.39-12.30L103.39-12.30Q103.94-11.76 105.24-11.30L105.24-11.30L108.74-10.07L108.74-10.07Q110.99-9.32 112.03-8.02L112.03-8.02L112.03-8.02Q113.06-6.71 113.06-4.90L113.06-4.90L113.06-4.90Q113.06-3.69 112.58-2.68L112.58-2.68L112.58-2.68Q112.10-1.67 111.21-0.96L111.21-0.96L111.21-0.96Q110.32-0.25 109.07 0.15L109.07 0.15L109.07 0.15Q107.82 0.54 106.29 0.54L106.29 0.54L106.29 0.54Q104.17 0.54 102.83-0.14L102.83-0.14L102.83-0.14Q101.50-0.83 100.78-1.95L100.78-1.95L98.95-1.95L98.95-4.97L102.59-4.97L102.59-4.97Q102.59-4.22 102.91-3.68L102.91-3.68L102.91-3.68Q103.24-3.15 103.77-2.81L103.77-2.81L103.77-2.81Q104.31-2.48 104.99-2.32L104.99-2.32L104.99-2.32Q105.66-2.16 106.37-2.16L106.37-2.16L106.37-2.16Q107.05-2.16 107.68-2.33L107.68-2.33L107.68-2.33Q108.32-2.50 108.80-2.82L108.80-2.82L108.80-2.82Q109.28-3.15 109.56-3.60L109.56-3.60L109.56-3.60Q109.85-4.06 109.85-4.64L109.85-4.64L109.85-4.64Q109.85-5.52 109.27-6.13L109.27-6.13L109.27-6.13Q108.70-6.75 107.33-7.24L107.33-7.24L103.85-8.54L103.85-8.54Q101.72-9.30 100.70-10.47L100.70-10.47L100.70-10.47Q99.67-11.64 99.67-13.39L99.67-13.39L99.67-13.39Q99.67-14.55 100.10-15.54L100.10-15.54L100.10-15.54Q100.53-16.52 101.35-17.24L101.35-17.24L101.35-17.24Q102.16-17.95 103.34-18.35L103.34-18.35L103.34-18.35Q104.52-18.76 106.03-18.76L106.03-18.76L106.03-18.76Q107.98-18.76 109.30-18.21L109.30-18.21L109.30-18.21Q110.62-17.67 111.67-16.35L111.67-16.35L113.38-16.35L113.38-13.32L109.78-13.32Z" fill="#ccc"></path></g></g><style>text {
  font-size: 64px;
  font-family: Arial Black;
  dominant-baseline: central;
  text-anchor: middle;
}</style></svg>